<svg xmlns="http://www.w3.org/2000/svg" viewBox="0 0 125 29" width="125" height="29">
	<style>
		tspan { white-space:pre }
		.shp0 { fill: #2d4a60 } 
		.shp1 { fill: #03a973 } 
		.shp2 { fill: #ffffff } 
		.txt3 { font-size: 9px;fill: #000000;font-weight: bold;font-family: "Muli_ Regular_ Semi Bold" } 
		.shp4 { fill: none;stroke: #000000;stroke-linecap:square;stroke-width: 0.5 } 
	</style>
	<title>Testsigma logo</title>
	<g id="Page-1">
		<g id="Home-Final-V1-1600">
			<g id="Group-95">
				<g id="Group-93">
					<g id="logo-testsigma-dark">
						<path id="testsigma" fill-rule="evenodd" class="shp0" d="M38.56 11.28L38.36 12.48C38.33 12.59 38.27 12.69 38.18 12.77C38.08 12.85 37.98 12.89 37.87 12.89L36.04 12.89L34.92 19.28C34.85 19.62 34.82 19.86 34.82 20C34.82 20.19 34.87 20.31 34.97 20.35C35.07 20.4 35.25 20.42 35.51 20.42L36.59 20.42C36.68 20.42 36.77 20.44 36.84 20.47C36.92 20.49 36.96 20.56 36.96 20.67L36.96 20.73L36.73 22.01C36.69 22.22 36.54 22.34 36.28 22.38C36.03 22.42 35.79 22.45 35.56 22.48C35.34 22.51 35.11 22.52 34.88 22.52C33.98 22.52 33.3 22.35 32.82 22.01C32.35 21.67 32.11 21.1 32.11 20.28C32.11 20.13 32.12 19.98 32.14 19.81C32.16 19.65 32.19 19.47 32.21 19.28L33.33 12.89L31.46 12.61C31.24 12.58 31.13 12.46 31.13 12.26L31.13 12.2L31.3 11.28C31.32 11.17 31.38 11.08 31.47 11C31.56 10.92 31.66 10.88 31.76 10.88L33.68 10.88L33.98 9.21C34.01 9.1 34.07 9.01 34.16 8.94C34.25 8.87 34.34 8.83 34.45 8.8L36.41 8.47L36.49 8.47C36.68 8.47 36.77 8.55 36.77 8.72L36.77 8.78L36.39 10.88L38.22 10.88C38.45 10.88 38.56 10.99 38.56 11.22L38.56 11.28ZM48.74 14.91C48.74 15.1 48.73 15.29 48.71 15.49C48.69 15.68 48.66 15.88 48.64 16.07L48.47 17.04C48.41 17.38 48.24 17.55 47.99 17.55L41.35 17.55C41.32 17.7 41.3 17.84 41.28 17.97C41.26 18.1 41.25 18.24 41.25 18.39C41.25 18.95 41.4 19.39 41.71 19.72C42.03 20.05 42.56 20.22 43.32 20.22C44.07 20.22 44.77 20.19 45.44 20.14C46.11 20.09 46.65 20.04 47.09 20L47.17 20C47.25 20 47.32 20.01 47.38 20.04C47.45 20.06 47.48 20.13 47.48 20.22L47.48 20.3L47.23 21.65C47.2 21.81 47.16 21.93 47.1 22.01C47.04 22.09 46.91 22.15 46.72 22.18C46.38 22.23 46.06 22.28 45.77 22.33C45.47 22.38 45.16 22.41 44.85 22.44C44.54 22.47 44.2 22.49 43.85 22.5C43.5 22.51 43.09 22.52 42.63 22.52C42.18 22.52 41.72 22.45 41.25 22.32C40.77 22.18 40.34 21.95 39.95 21.64C39.57 21.32 39.25 20.9 39 20.37C38.75 19.85 38.62 19.2 38.62 18.43C38.62 18.24 38.63 18.04 38.64 17.84C38.65 17.64 38.68 17.42 38.72 17.21L38.95 15.95C39.11 15 39.36 14.19 39.7 13.52C40.04 12.86 40.45 12.32 40.94 11.9C41.43 11.49 41.99 11.19 42.63 11.01C43.27 10.83 43.97 10.73 44.75 10.73C45.43 10.73 46.02 10.84 46.52 11.05C47.02 11.26 47.44 11.55 47.76 11.92C48.09 12.3 48.33 12.74 48.49 13.25C48.66 13.76 48.74 14.31 48.74 14.91ZM46.09 14.87C46.09 14.27 45.94 13.82 45.64 13.51C45.35 13.21 44.91 13.05 44.34 13.05C43.53 13.05 42.92 13.3 42.51 13.79C42.1 14.28 41.83 14.89 41.69 15.64L46.01 15.64C46.04 15.5 46.06 15.38 46.07 15.25C46.08 15.13 46.09 15 46.09 14.87ZM58.73 11.63L58.52 12.79C58.48 13.05 58.36 13.18 58.14 13.18L58.06 13.18C57.92 13.15 57.73 13.12 57.49 13.1C57.24 13.07 56.97 13.04 56.68 13.02C56.39 13 56.08 12.98 55.76 12.96C55.43 12.94 55.12 12.93 54.84 12.93C54.68 12.93 54.5 12.94 54.32 12.96C54.14 12.98 53.97 13.02 53.81 13.08C53.66 13.15 53.53 13.24 53.42 13.36C53.32 13.48 53.27 13.65 53.27 13.87C53.27 14.14 53.48 14.42 53.88 14.7L56.27 16.33C56.88 16.75 57.28 17.17 57.48 17.59C57.67 18.02 57.77 18.45 57.77 18.9C57.77 19.54 57.65 20.08 57.41 20.54C57.16 20.99 56.84 21.37 56.43 21.67C56.02 21.97 55.55 22.18 55 22.32C54.46 22.45 53.88 22.52 53.27 22.52C53.11 22.52 52.88 22.52 52.59 22.51C52.3 22.5 51.99 22.48 51.65 22.45C51.32 22.42 50.97 22.37 50.62 22.32C50.26 22.26 49.92 22.2 49.61 22.11C49.4 22.05 49.3 21.92 49.3 21.75L49.3 21.65L49.53 20.42C49.55 20.32 49.6 20.23 49.68 20.18C49.75 20.13 49.84 20.1 49.95 20.1L50.01 20.1C50.26 20.13 50.54 20.15 50.85 20.18C51.16 20.21 51.47 20.23 51.78 20.25C52.08 20.27 52.37 20.29 52.64 20.3C52.91 20.32 53.12 20.32 53.27 20.32C53.77 20.32 54.19 20.25 54.52 20.11C54.86 19.97 55.02 19.66 55.02 19.18C55.02 19.02 54.97 18.86 54.87 18.7C54.77 18.55 54.6 18.38 54.35 18.21L51.87 16.5C51.47 16.22 51.15 15.87 50.91 15.45C50.67 15.02 50.54 14.56 50.54 14.07C50.54 13.39 50.68 12.84 50.94 12.41C51.21 11.99 51.55 11.65 51.96 11.4C52.37 11.14 52.83 10.97 53.34 10.88C53.85 10.78 54.35 10.73 54.84 10.73C55.45 10.73 56.06 10.77 56.67 10.84C57.28 10.9 57.87 11.01 58.44 11.16C58.63 11.22 58.73 11.34 58.73 11.53L58.73 11.63ZM67.4 11.28L67.19 12.48C67.16 12.59 67.1 12.69 67.01 12.77C66.91 12.85 66.81 12.89 66.7 12.89L64.87 12.89L63.75 19.28C63.68 19.62 63.65 19.86 63.65 20C63.65 20.19 63.7 20.31 63.8 20.35C63.9 20.4 64.08 20.42 64.34 20.42L65.42 20.42C65.52 20.42 65.6 20.44 65.68 20.47C65.75 20.49 65.79 20.56 65.79 20.67L65.79 20.73L65.56 22.01C65.52 22.22 65.37 22.34 65.12 22.38C64.86 22.42 64.62 22.45 64.39 22.48C64.17 22.51 63.94 22.52 63.71 22.52C62.81 22.52 62.13 22.35 61.65 22.01C61.18 21.67 60.94 21.1 60.94 20.28C60.94 20.13 60.95 19.98 60.97 19.81C60.99 19.65 61.02 19.47 61.04 19.28L62.16 12.89L60.29 12.61C60.07 12.58 59.96 12.46 59.96 12.26L59.96 12.2L60.13 11.28C60.15 11.17 60.21 11.08 60.3 11C60.39 10.92 60.49 10.88 60.6 10.88L62.51 10.88L62.81 9.21C62.84 9.1 62.9 9.01 62.99 8.94C63.08 8.87 63.17 8.83 63.28 8.8L65.24 8.47L65.32 8.47C65.51 8.47 65.6 8.55 65.6 8.72L65.6 8.78L65.22 10.88L67.05 10.88C67.28 10.88 67.4 10.99 67.4 11.22L67.4 11.28ZM76.23 11.63L76.02 12.79C75.98 13.05 75.85 13.18 75.63 13.18L75.55 13.18C75.42 13.15 75.23 13.12 74.98 13.1C74.74 13.07 74.47 13.04 74.18 13.02C73.89 13 73.58 12.98 73.25 12.96C72.93 12.94 72.62 12.93 72.34 12.93C72.17 12.93 72 12.94 71.82 12.96C71.63 12.98 71.46 13.02 71.31 13.08C71.15 13.15 71.02 13.24 70.92 13.36C70.82 13.48 70.77 13.65 70.77 13.87C70.77 14.14 70.97 14.42 71.38 14.7L73.76 16.33C74.37 16.75 74.78 17.17 74.97 17.59C75.17 18.02 75.27 18.45 75.27 18.9C75.27 19.54 75.15 20.08 74.9 20.54C74.66 20.99 74.33 21.37 73.92 21.67C73.52 21.97 73.04 22.18 72.5 22.32C71.96 22.45 71.38 22.52 70.77 22.52C70.61 22.52 70.38 22.52 70.09 22.51C69.79 22.5 69.48 22.48 69.15 22.45C68.82 22.42 68.47 22.37 68.11 22.32C67.75 22.26 67.42 22.2 67.1 22.11C66.9 22.05 66.8 21.92 66.8 21.75L66.8 21.65L67.02 20.42C67.05 20.32 67.1 20.23 67.18 20.18C67.25 20.13 67.34 20.1 67.45 20.1L67.51 20.1C67.76 20.13 68.03 20.15 68.35 20.18C68.66 20.21 68.97 20.23 69.27 20.25C69.58 20.27 69.87 20.29 70.14 20.3C70.41 20.32 70.62 20.32 70.77 20.32C71.27 20.32 71.69 20.25 72.02 20.11C72.35 19.97 72.52 19.66 72.52 19.18C72.52 19.02 72.47 18.86 72.37 18.7C72.27 18.55 72.09 18.38 71.85 18.21L69.36 16.5C68.97 16.22 68.65 15.87 68.41 15.45C68.16 15.02 68.04 14.56 68.04 14.07C68.04 13.39 68.17 12.84 68.44 12.41C68.7 11.99 69.04 11.65 69.46 11.4C69.87 11.14 70.33 10.97 70.84 10.88C71.35 10.78 71.85 10.73 72.34 10.73C72.95 10.73 73.56 10.77 74.17 10.84C74.78 10.9 75.37 11.01 75.94 11.16C76.13 11.22 76.23 11.34 76.23 11.53L76.23 11.63ZM82.08 7.15L81.76 8.94C81.73 9.05 81.67 9.15 81.58 9.23C81.5 9.31 81.4 9.35 81.29 9.35L79.31 9.35C79.2 9.35 79.12 9.32 79.05 9.26C78.98 9.2 78.95 9.11 78.95 9L78.95 8.94L79.27 7.15C79.3 7.04 79.36 6.95 79.46 6.87C79.55 6.78 79.65 6.74 79.76 6.74L81.74 6.74C81.97 6.74 82.08 6.86 82.08 7.09L82.08 7.15ZM81.29 11.28L79.42 21.93C79.39 22.04 79.33 22.14 79.23 22.23C79.14 22.31 79.04 22.36 78.93 22.36L77.05 22.36C76.94 22.36 76.86 22.32 76.81 22.26C76.75 22.19 76.73 22.11 76.73 22.01L76.73 21.93L78.6 11.28C78.63 11.17 78.69 11.08 78.77 11C78.86 10.92 78.96 10.88 79.07 10.88L80.94 10.88C81.17 10.88 81.29 10.99 81.29 11.22L81.29 11.28ZM92.66 11.67C92.66 11.7 92.66 11.72 92.65 11.74C92.65 11.76 92.64 11.79 92.64 11.81L90.79 22.32C90.65 23.06 90.47 23.7 90.24 24.22C90.01 24.74 89.69 25.17 89.28 25.49C88.88 25.82 88.36 26.06 87.75 26.21C87.13 26.36 86.38 26.43 85.5 26.43C84.51 26.43 83.7 26.37 83.07 26.25C82.45 26.13 82.01 26.02 81.77 25.94C81.66 25.9 81.58 25.86 81.52 25.81C81.46 25.76 81.42 25.68 81.42 25.58C81.42 25.56 81.43 25.54 81.43 25.52C81.44 25.5 81.44 25.48 81.44 25.45L81.65 24.37C81.69 24.14 81.84 24.03 82.1 24.03L82.14 24.03C82.37 24.06 82.65 24.08 82.97 24.11C83.3 24.14 83.64 24.16 83.99 24.18C84.34 24.2 84.69 24.22 85.02 24.24C85.35 24.26 85.63 24.27 85.86 24.27C86.64 24.27 87.18 24.14 87.5 23.88C87.82 23.61 88.02 23.14 88.1 22.46L88.12 22.3C87.81 22.37 87.5 22.42 87.19 22.45C86.87 22.48 86.57 22.5 86.27 22.5C85.69 22.5 85.14 22.43 84.62 22.29C84.11 22.14 83.66 21.92 83.28 21.61C82.9 21.29 82.6 20.9 82.38 20.41C82.16 19.93 82.06 19.35 82.06 18.65C82.06 18.46 82.06 18.27 82.08 18.06C82.09 17.86 82.12 17.64 82.16 17.41L82.42 15.84C82.59 14.89 82.82 14.09 83.13 13.44C83.45 12.79 83.84 12.26 84.33 11.86C84.81 11.46 85.37 11.17 86.02 11C86.66 10.82 87.39 10.73 88.2 10.73C88.86 10.73 89.55 10.78 90.28 10.89C91.01 10.99 91.65 11.11 92.19 11.26C92.34 11.3 92.46 11.35 92.54 11.41C92.62 11.46 92.66 11.55 92.66 11.67ZM89.73 13.12C89.54 13.07 89.27 13.03 88.91 12.99C88.55 12.95 88.18 12.93 87.82 12.93C86.98 12.93 86.35 13.17 85.95 13.65C85.55 14.14 85.27 14.87 85.11 15.84L84.84 17.41C84.8 17.66 84.77 17.88 84.74 18.09C84.72 18.3 84.7 18.5 84.7 18.69C84.7 19.24 84.83 19.64 85.09 19.92C85.35 20.19 85.82 20.32 86.51 20.32C86.76 20.32 87.07 20.31 87.46 20.27C87.85 20.24 88.19 20.2 88.49 20.16L89.73 13.12ZM109.13 13.71C109.13 14.1 109.09 14.53 109.01 15.01L107.78 21.93C107.76 22.04 107.7 22.14 107.6 22.23C107.51 22.31 107.4 22.36 107.3 22.36L105.42 22.36C105.31 22.36 105.23 22.32 105.18 22.26C105.12 22.19 105.1 22.11 105.1 22.01L105.1 21.93L106.32 15.01C106.35 14.82 106.37 14.65 106.39 14.49C106.41 14.33 106.42 14.19 106.42 14.07C106.42 13.68 106.32 13.41 106.13 13.26C105.94 13.11 105.63 13.03 105.2 13.03C105.01 13.03 104.72 13.07 104.33 13.15C103.95 13.22 103.55 13.35 103.14 13.54C103.13 13.77 103.12 14.01 103.11 14.26C103.1 14.5 103.08 14.75 103.04 15.01L101.82 21.93C101.79 22.04 101.73 22.14 101.64 22.23C101.54 22.31 101.44 22.36 101.33 22.36L99.46 22.36C99.35 22.36 99.27 22.32 99.21 22.26C99.16 22.19 99.13 22.11 99.13 22.01L99.13 21.93L100.35 15.01C100.39 14.81 100.42 14.62 100.43 14.46C100.45 14.3 100.45 14.15 100.45 14.01C100.45 13.63 100.37 13.37 100.19 13.24C100.01 13.1 99.71 13.03 99.29 13.03C98.89 13.03 98.22 13.26 97.3 13.71L95.85 21.93C95.83 22.04 95.76 22.14 95.67 22.23C95.57 22.31 95.47 22.36 95.36 22.36L93.49 22.36C93.38 22.36 93.3 22.32 93.25 22.26C93.19 22.19 93.17 22.11 93.17 22.01L93.17 21.93L95.04 11.28C95.07 11.17 95.12 11.08 95.21 11C95.3 10.92 95.4 10.88 95.51 10.88L97.28 10.88C97.51 10.88 97.62 10.99 97.62 11.22L97.62 11.28L97.54 11.71C98.02 11.44 98.49 11.21 98.95 11.02C99.41 10.83 99.95 10.73 100.56 10.73C101.14 10.73 101.6 10.83 101.95 11.03C102.3 11.23 102.56 11.46 102.73 11.73C103.25 11.39 103.8 11.14 104.38 10.98C104.97 10.81 105.61 10.73 106.32 10.73C107.3 10.73 108.01 11 108.46 11.53C108.9 12.06 109.13 12.78 109.13 13.71ZM120.85 11.65C120.85 11.72 120.84 11.77 120.83 11.81L119.06 21.95C119.03 22.06 118.97 22.16 118.87 22.24C118.78 22.32 118.68 22.36 118.57 22.36L116.94 22.36C116.72 22.36 116.61 22.24 116.61 22.01L116.61 21.95L116.7 21.36C116.12 21.8 115.58 22.1 115.07 22.27C114.55 22.44 114.04 22.52 113.54 22.52C113.08 22.52 112.64 22.44 112.24 22.29C111.83 22.13 111.47 21.9 111.17 21.59C110.86 21.27 110.62 20.89 110.45 20.43C110.29 19.98 110.2 19.45 110.2 18.84C110.2 18.65 110.21 18.45 110.22 18.24C110.23 18.03 110.26 17.82 110.3 17.61C110.33 17.41 110.36 17.21 110.4 17C110.43 16.83 110.47 16.64 110.51 16.43C110.55 16.23 110.58 16.03 110.61 15.84C110.89 14.24 111.52 12.99 112.48 12.09C113.44 11.18 114.75 10.73 116.39 10.73C117.04 10.73 117.72 10.78 118.42 10.88C119.11 10.97 119.77 11.1 120.38 11.26C120.53 11.3 120.64 11.35 120.73 11.4C120.81 11.44 120.85 11.53 120.85 11.65ZM117.92 13.07C117.73 13.03 117.45 13 117.09 12.97C116.73 12.95 116.37 12.93 116 12.93C115.57 12.93 115.2 13.01 114.88 13.16C114.57 13.31 114.31 13.51 114.1 13.77C113.89 14.02 113.72 14.33 113.59 14.68C113.46 15.04 113.36 15.42 113.3 15.84L112.93 17.94C112.9 18.09 112.88 18.24 112.87 18.38C112.85 18.52 112.85 18.65 112.85 18.78C112.85 19.36 112.98 19.76 113.25 19.99C113.53 20.21 113.86 20.32 114.25 20.32C114.65 20.32 115.05 20.25 115.47 20.1C115.89 19.95 116.34 19.74 116.8 19.47L117.92 13.07Z" />
						<path id="Path-Copy-32" class="shp1" d="M28.34 10.87C28.07 10.46 27.68 10.22 27.2 10.16C26.98 10.13 26.74 10.09 26.52 10.05C26.24 10.01 25.95 9.97 25.66 9.93C24.89 9.86 24.42 9.54 24.13 8.91C23.94 8.48 23.92 8.1 24.06 7.72L24.17 7.44C24.36 6.94 24.56 6.43 24.77 5.93C24.98 5.45 24.96 4.97 24.73 4.51C24.3 3.67 23.62 3.09 22.73 2.78C22.22 2.61 21.72 2.67 21.26 2.97C21.05 3.11 20.82 3.25 20.6 3.38C20.29 3.57 19.97 3.76 19.67 3.97C19.46 4.12 19.2 4.2 18.91 4.2L18.91 4.2C18.19 4.2 17.49 3.72 17.32 3.12C17.23 2.8 17.12 2.48 17.01 2.17C16.92 1.91 16.83 1.64 16.75 1.37C16.58 0.81 16.21 0.42 15.65 0.21C15.48 0.15 15.32 0.11 15.15 0.07C15.09 0.05 15.01 0.03 14.95 0.01L14.91 0L13.98 0L13.95 0.01C13.93 0.02 13.91 0.02 13.89 0.03C13.87 0.04 13.84 0.05 13.82 0.05C12.87 0.22 12.3 0.71 12.09 1.54C11.99 1.9 11.86 2.27 11.74 2.63C11.67 2.82 11.6 3.01 11.54 3.2C11.36 3.77 10.68 4.22 10.01 4.22C9.74 4.22 9.49 4.14 9.28 4C8.9 3.74 8.51 3.5 8.13 3.27C7.94 3.16 7.76 3.05 7.58 2.94C7.23 2.72 6.84 2.65 6.45 2.75C5.41 3 4.64 3.64 4.17 4.64C3.98 5.04 3.97 5.48 4.15 5.92C4.23 6.12 4.31 6.32 4.39 6.52C4.51 6.83 4.63 7.14 4.76 7.45C5.04 8.08 5.01 8.64 4.66 9.19C4.42 9.58 4.1 9.8 3.69 9.88C3.1 9.99 2.47 10.09 1.82 10.17C1.26 10.23 0.83 10.51 0.53 10.99C0.12 11.64 -0.05 12.39 0.01 13.19C0.07 13.95 0.43 14.49 1.09 14.8C1.33 14.92 1.56 15.05 1.79 15.18C2.04 15.32 2.3 15.47 2.57 15.6C2.96 15.78 3.25 16.19 3.35 16.69C3.44 17.22 3.31 17.75 3 18.07C2.56 18.53 2.12 19.02 1.71 19.54C1.53 19.77 1.39 20.06 1.34 20.33C1.15 21.42 2.06 23.03 3.09 23.41C3.34 23.5 3.66 23.53 3.95 23.49C4.5 23.4 5.07 23.29 5.69 23.14C6.32 22.98 6.81 23.11 7.28 23.58C7.64 23.93 7.8 24.3 7.79 24.77C7.77 25.38 7.76 26.03 7.73 26.68C7.7 27.17 7.88 27.6 8.23 27.95C8.8 28.5 9.51 28.83 10.35 28.92C10.44 28.93 10.53 28.93 10.62 28.93C11.26 28.93 11.77 28.66 12.15 28.12C12.29 27.92 12.45 27.72 12.62 27.52C12.8 27.3 12.98 27.09 13.14 26.85C13.41 26.45 13.91 26.22 14.46 26.22C15 26.22 15.49 26.45 15.77 26.84C15.99 27.16 16.24 27.46 16.48 27.76C16.63 27.94 16.78 28.12 16.92 28.31C17.19 28.66 17.56 28.87 17.98 28.91C18.99 29 19.9 28.69 20.67 27.98C21.04 27.65 21.21 27.21 21.18 26.68C21.17 26.45 21.17 26.21 21.16 25.98C21.15 25.68 21.15 25.37 21.12 25.06C21.07 24.34 21.29 23.81 21.83 23.42C22.18 23.16 22.53 23.07 22.91 23.13C23.59 23.24 24.2 23.37 24.77 23.51C25.36 23.66 25.91 23.52 26.38 23.1C26.98 22.58 27.37 21.91 27.53 21.13C27.67 20.47 27.52 19.9 27.07 19.44C26.89 19.25 26.72 19.05 26.56 18.86C26.39 18.67 26.22 18.47 26.04 18.28C25.55 17.78 25.42 17.26 25.6 16.59C25.73 16.13 25.95 15.82 26.31 15.62C26.9 15.28 27.45 14.98 28 14.7C28.43 14.47 28.71 14.11 28.82 13.64C29.07 12.65 28.91 11.72 28.34 10.87Z" />
						<path id="Path-Copy-36" class="shp2" d="M14.4 11.08L14.41 11.02L14.45 9.99C14.44 9.94 14.46 9.76 14.46 9.73C14.46 9.18 14.49 9.22 14.54 8.17C14.54 8.09 14.51 8.01 14.44 7.95C14.38 7.9 14.3 7.88 14.22 7.9C13.79 8.01 13.24 8.13 12.61 8.26C12.49 8.28 12.41 8.39 12.4 8.51C12.33 9.48 12.34 9.25 12.3 9.7L12.2 10.99C12.2 10.99 12.2 10.99 12.2 11L12.14 12.21L12 14.86L11.95 15.8C11.89 17.01 11.86 17.69 11.85 17.89C11.84 18.09 11.84 18.24 11.84 18.33C11.84 18.97 11.95 19.51 12.17 19.9C12.4 20.3 12.73 20.6 13.15 20.78C13.55 20.96 14.07 21.04 14.71 21.04C14.96 21.04 15.24 21.03 15.52 21C15.8 20.97 16.18 20.89 16.65 20.78C16.75 20.75 16.83 20.67 16.85 20.56C16.89 20.3 16.93 19.98 16.96 19.67C17.01 19.3 17.05 18.91 17.09 18.73C17.11 18.62 17.08 18.52 17 18.46C16.92 18.39 16.81 18.38 16.73 18.43C16.27 18.67 16.01 18.77 15.59 18.85C15.45 18.88 15.32 18.88 15.18 18.88L15.11 18.88C14.92 18.88 14.66 18.82 14.45 18.71C14.26 18.61 14.22 18.58 14.18 18.41C14.12 18.1 14.12 18.04 14.12 17.67L14.12 17.51L14.13 17.06L14.28 13.72L14.4 11.08Z" />
						<path id="Path-Copy-35" class="shp2" d="M19.67 11.22L19.22 10.25C19.14 10.09 19.01 9.96 18.85 9.9C18.69 9.84 18.51 9.85 18.35 9.93L15.04 11.57L15.04 11.51L12.66 12.75L11.26 13.44L10.72 12.27C10.65 12.11 10.52 11.99 10.35 11.93C10.19 11.87 10.02 11.87 9.86 11.95L8.92 12.41C8.6 12.57 8.46 12.97 8.61 13.3L9.87 16.06C9.95 16.22 10.08 16.34 10.24 16.4C10.31 16.43 10.38 16.44 10.45 16.44C10.55 16.44 10.65 16.42 10.73 16.38L12.52 15.49L14.92 14.31L19.36 12.11C19.68 11.95 19.82 11.55 19.67 11.22Z" />
					</g>
					<g id="AI-Driven-Test-Autom">
						<text id="AI-Driven Test " style="transform: matrix(1,0,0,1,131,13)" >
							<tspan x="0" y="0" class="txt3">AI-Driven Test </tspan>
						</text>
						<text id="Automation" style="transform: matrix(1,0,0,1,131,24)" >
							<tspan x="0" y="0" class="txt3">Automation</tspan>
						</text>
					</g>
					<path id="Line-7" class="shp4" d="M126.5 6L126.5 23" />
				</g>
			</g>
		</g>
	</g>
</svg>